<svg xmlns="http://www.w3.org/2000/svg" viewBox="0 0 32 32">
  <path fill="#13aa52" d="M15.9.087l.854 1.604c.192.296.4.558.645.802a22.406 22.406 0 012.004 2.266c1.447 1.9 2.423 4.01 3.12 6.292.418 1.394.645 2.824.662 4.27.07 4.323-1.412 8.035-4.4 11.12a12.7 12.7 0 01-1.57 1.342c-.296 0-.436-.227-.558-.436a3.589 3.589 0 01-.436-1.255c-.105-.523-.174-1.046-.14-1.586v-.244C16.057 24.21 15.796.21 15.9.087z"/>
  <path fill="#b8c4c2" d="M15.9.034c-.035-.07-.07-.017-.105.017.017.35-.523 24.087-.523 24.087l.314 4.834s.192.436.436.61c.244.174.453.296.453.296s-.035-16.1-.07-16.8c-.07-2.162-.105-7.304-.105-7.304C15.966 2.306 15.9.034 15.9.034z"/>
  <path fill="#13aa52" d="M16.754 28.845c.035-.4.227-.732.436-1.063-.21-.087-.366-.26-.488-.453a3.235 3.235 0 01-.26-.575c-.244-.732-.296-1.5-.366-2.248v-.453c-.087.07-.105.662-.105.75a17.37 17.37 0 01-.314 2.353c-.052.314-.087.627-.28.906 0 .07 0 .14.017.227.314.436.4.924.4 1.43l.262-.124c.052-.227.105-.488.105-.75z"/>
</svg> 