<svg xmlns="http://www.w3.org/2000/svg" viewBox="0 0 90 90">
  <path fill="#000000" d="M72.2,4.6L53.4,32.5c-1,1.3-3,0.3-3-1.3V4.6c0-1.1-0.9-2-2-2H43c-1.1,0-2,0.9-2,2v80.8c0,1.1,0.9,2,2,2h5.4
    c1.1,0,2-0.9,2-2V58.8c0-1.6,2.1-2.6,3-1.3l18.8,27.9c0.4,0.5,1,0.9,1.6,0.9h6.8c1.8,0,2.7-2.2,1.6-3.4L61.4,45
    c-1.1-1.3-1.1-3.3,0-4.6l20.8-36.9c1.1-1.3,0.2-3.4-1.6-3.4h-6.8C73.1,3.7,72.5,4,72.2,4.6z"/>
  <path fill="#000000" d="M25.9,85.4H6.9c-1.8,0-2.7-2.2-1.6-3.4l15.3-22.5c1.1-1.3,3.2-0.4,3.2,1.3v22.5
    C23.9,84.5,24.8,85.4,25.9,85.4z"/>
  <path fill="#000000" d="M23.9,40.3V4.6c0-1.1-0.9-2-2-2h-5.4c-1.1,0-2,0.9-2,2v58.7c0,0.8,0.4,1.5,1.1,1.8l5.4,2.8
    c1.6,0.8,3.2-0.4,3.2-2.1V42.4C24.2,41.7,24.1,41,23.9,40.3z"/>
</svg> 