<?xml version="1.0" encoding="UTF-8"?>
<svg width="256" height="256" viewBox="0 0 256 256" xmlns="http://www.w3.org/2000/svg">
  <!-- Blue circle background -->
  <circle cx="128" cy="128" r="100" fill="#336791"/>
  
  <!-- PostgreSQL Elephant -->
  <g transform="translate(68, 68) scale(0.75)">
    <!-- Elephant body (white with black outline) -->
    <path d="M113.5,104.5c-11.2,0-20.8-3.8-23.5-5.1c-2.8-1.3-8-3.8-12-7.6c-4-3.8-8-9.6-9.7-13.9c-1.7-4.3-2.3-10.1-2.3-14c0-3.8,0.6-11.4,2.3-17.2c1.7-5.8,5.7-13.3,9.7-18.3c4-5,9.2-9.8,15-13c5.7-3.2,14-6.9,20.4-8.2c6.4-1.3,16.3-2,23.3-1.3c7,0.7,17.5,3.8,24.5,7c7,3.2,16.1,9.2,21.1,14c5,4.8,10,11.4,13,17.2c3,5.8,5.3,13.3,6.3,20.1c1,6.9,1,15.2-0.3,21c-1.3,5.8-3.7,14-8,21.5c-4.3,7.5-10.7,15-16.7,19.5c-6,4.5-14.7,9.5-21.7,12c-7,2.5-16,5-24,5.7c-8,0.7-19,0-24-1.3c-5-1.3-12.7-3.8-12.7-3.8s3.8,3.8,6,12.7c2.2,8.9,2.2,18,2.2,18h-4.5c0,0-3.8-10.1-6-15c-2.2-4.9-6.7-10.8-9-13.3c-2.2-2.5-5.7-5.1-5.7-5.1s8,1.3,14.3-3.8c6.3-5.1,11.3-11.4,14.2-17.2C115.8,106.3,113.5,104.5,113.5,104.5z" fill="white" stroke="black" stroke-width="3"/>
    
    <!-- Eye -->
    <circle cx="150" cy="95" r="8" fill="black"/>
    
    <!-- Trunk -->
    <path d="M90,95c0,0,2.5,3.2,5,5.1c2.5,1.9,6.3,3.8,10,3.8c3.7,0,7.5-1.9,10-3.8c2.5-1.9,5-5.1,5-5.1s0,3.2-2.5,5.1c-2.5,1.9-6.3,3.8-10,3.8c-3.7,0-7.5-1.9-10-3.8C95,98.2,90,95,90,95z" fill="black"/>
  </g>
</svg>
