<svg xmlns="http://www.w3.org/2000/svg" viewBox="0 0 432.1 445.4">
  <path fill="#336791" d="M214.8 0c-11.7.2-23 1.4-32.8 3.6-28 6.4-33 17.5-33 39.4v28.9h66v8.9h-66h-24.7c-22 0-41.3 13.2-47.3 38.4-7 28.9-7.3 46.9 0 77.1 5.3 22.5 18.2 38.4 40.2 38.4h26v-34.6c0-25 21.6-47.1 47.3-47.1h66c21 0 37.8-17.3 37.8-38.4V43c0-20.5-17.3-35.9-37.8-39.4C245.5.8 233.7-.3 214.8 0zm-35.9 23.1c6.8 0 12.4 5.7 12.4 12.6 0 7-5.6 12.6-12.4 12.6-6.9 0-12.4-5.7-12.4-12.6 0-7 5.6-12.6 12.4-12.6z"/>
  <path fill="#fff" d="M263.9 80.8v33.7c0 26.1-22.1 48.1-47.3 48.1h-66c-20.7 0-37.8 17.7-37.8 38.4v72c0 20.5 17.8 32.5 37.8 38.4 23.9 7 46.8 8.3 75.1 0 18.8-5.5 37.8-16.6 37.8-38.4v-28.9h-66v-8.9h66h37.8c22 0 30.2-15.4 37.8-38.4 7.8-23.7 7.5-46.5 0-77.1-5.4-22-15.7-38.4-37.8-38.4h-14.2l.1-.1h-.1z"/>
  <path fill="#fff" d="M216.5 406.8c-6.9 0-12.4-5.7-12.4-12.6 0-7 5.6-12.6 12.4-12.6 6.8 0 12.4 5.7 12.4 12.6 0 7-5.6 12.6-12.4 12.6z"/>
  <path fill="#336791" d="M216.5 406.8c-6.9 0-12.4-5.7-12.4-12.6 0-7 5.6-12.6 12.4-12.6 6.8 0 12.4 5.7 12.4 12.6 0 7-5.6 12.6-12.4 12.6z"/>
  <path fill="#336791" d="M323.8 113.5c-2 0-3.8.2-5.5.6 2.4 4.7 3.7 10 3.7 16.1 0 0-.1 1.7-.2 2.7 1.3 9.8 1 19.2-1 27.8-.3 1.3-.7 2.7-1.1 4.2 5.5-1.1 9.9-6.9 11-15.1 1.5-11.4 1.6-20.1 0-33.3-1-8.5-3.1-13-6.9-13z"/>
  <path fill="#fff" d="M323.8 113.5c-2 0-3.8.2-5.5.6 2.4 4.7 3.7 10 3.7 16.1 0 0-.1 1.7-.2 2.7 1.3 9.8 1 19.2-1 27.8-.3 1.3-.7 2.7-1.1 4.2 5.5-1.1 9.9-6.9 11-15.1 1.5-11.4 1.6-20.1 0-33.3-1-8.5-3.1-13-6.9-13z"/>
  <path fill="#336791" d="M309.3 183.5c-.5-1.6-1-3.1-1.4-4.5-2.2-8.6-2.5-18-1.2-27.8-3.6 10.9-2.6 21.3 1.2 32.3h1.4z"/>
  <path fill="#fff" d="M309.3 183.5c-.5-1.6-1-3.1-1.4-4.5-2.2-8.6-2.5-18-1.2-27.8-3.6 10.9-2.6 21.3 1.2 32.3h1.4z"/>
</svg> 